HIERARCHY
ROOT Hips
{
	OFFSET 0.00000 0.00000 0.00000
	CHANNELS 6 Xposition Yposition Zposition Zrotation Yrotation Xrotation 
	JOINT LHipJoint
	{
		OFFSET 0 0 0
		CHANNELS 3 Zrotation Yrotation Xrotation
		JOINT LeftHip
		{
			OFFSET 1.26600 -1.82114 0.91038
			CHANNELS 3 Zrotation Yrotation Xrotation
			JOINT LeftKnee
			{
				OFFSET 2.50076 -6.87080 0.00000
				CHANNELS 3 Zrotation Yrotation Xrotation
				JOINT LeftAnkle
				{
					OFFSET 2.57364 -7.07102 0.00000
					CHANNELS 3 Zrotation Yrotation Xrotation
					JOINT LeftToe
					{
						OFFSET 0.13572 -0.37290 1.97004
						CHANNELS 3 Zrotation Yrotation Xrotation
						End Site
						{
							OFFSET 0.00000 -0.00000 1.01383
						}
					}
				}
			}
		}
	}
	JOINT RHipJoint
	{
		OFFSET 0 0 0
		CHANNELS 3 Zrotation Yrotation Xrotation
		JOINT RightHip
		{
			OFFSET -1.20803 -1.82114 0.91038
			CHANNELS 3 Zrotation Yrotation Xrotation
			JOINT RightKnee
			{
				OFFSET -2.54916 -7.00377 0.00000
				CHANNELS 3 Zrotation Yrotation Xrotation
				JOINT RightAnkle
				{
					OFFSET -2.56374 -7.04382 0.00000
					CHANNELS 3 Zrotation Yrotation Xrotation
					JOINT RightToe
					{
						OFFSET -0.23520 -0.64621 2.09921
						CHANNELS 3 Zrotation Yrotation Xrotation
						End Site
						{
							OFFSET -0.00000 -0.00000 1.10065
						}
					}
				}
			}
		}
	}
	JOINT lowerback
	{
		OFFSET 0 0 0
		CHANNELS 3 Zrotation Yrotation Xrotation
		JOINT Chest
		{
			OFFSET 0.05492 2.10797 -0.12074
			CHANNELS 3 Zrotation Yrotation Xrotation
			JOINT Chest2
			{
				OFFSET 0.04577 2.11592 -0.04483
				CHANNELS 3 Zrotation Yrotation Xrotation
				JOINT lowerneck
				{
					OFFSET 0 0 0
					CHANNELS 3 Zrotation Yrotation Xrotation
					JOINT Neck
					{
						OFFSET -0.10759 1.80167 0.15770
						CHANNELS 3 Zrotation Yrotation Xrotation
						JOINT Head
						{
							OFFSET 0.09237 1.77509 -0.40848
							CHANNELS 3 Zrotation Yrotation Xrotation
							End Site
							{
								OFFSET 0.03805 1.84093 -0.15754
							}
						}
					}
				}
				JOINT LeftCollar
				{
					OFFSET 0 0 0
					CHANNELS 3 Zrotation Yrotation Xrotation
					JOINT LeftShoulder
					{
						OFFSET 3.42372 1.09575 -0.28209
CHANNELS 3 Zrotation Xrotation Yrotation
						JOINT LeftElbow
						{
OFFSET 0 -4.956810 0.000000
CHANNELS 3 Zrotation Xrotation Yrotation
							JOINT LeftWrist
							{
OFFSET 0 -3.409150 0.000000
CHANNELS 3 Zrotation Xrotation Yrotation
								JOINT lhand
								{
									OFFSET 0 0 0
CHANNELS 3 Zrotation Xrotation Yrotation
									JOINT LFingers
									{
OFFSET 0 -0.616400 0.000000
CHANNELS 3 Zrotation Xrotation Yrotation
										End Site
										{
OFFSET 0 -0.496960 0.000000
										}
									}
								}
								JOINT LThumb
								{
OFFSET 0 0.000000 0.000000
CHANNELS 3 Zrotation Xrotation Yrotation
									End Site
									{
OFFSET 0 -0.504550 0.504550
									}
								}
							}
						}
					}
				}
				JOINT RightCollar
				{
					OFFSET 0 0 0
					CHANNELS 3 Zrotation Yrotation Xrotation
					JOINT RightShoulder
					{
						OFFSET -3.24731 1.15872 -0.32221
CHANNELS 3 Zrotation Xrotation Yrotation
						JOINT RightElbow
						{
OFFSET 0 -5.352000 0.000000
CHANNELS 3 Zrotation Xrotation Yrotation
							JOINT RightWrist
							{
OFFSET 0 -3.437210 -0.000000
CHANNELS 3 Zrotation Xrotation Yrotation
								JOINT rhand
								{
									OFFSET 0 0 0
CHANNELS 3 Zrotation Xrotation Yrotation
									JOINT RFingers
									{
OFFSET 0 -0.720090 0.000000
CHANNELS 3 Zrotation Xrotation Yrotation
										End Site
										{
OFFSET 0 -0.580560 0.000000
										}
									}
								}
								JOINT RThumb
								{
OFFSET 0 0.000000 0.000000
CHANNELS 3 Zrotation Xrotation Yrotation
									End Site
									{
OFFSET 0 -0.589420 0.589420
									}
								}
							}
						}
					}
				}
			}
		}
	}
}
MOTION
Frames: 5
Frame Time: 0.008333333333333333
26.115828 17.265223 -21.892195 610.685444 -79.310794 833.698177 0.000000 0.000000 0.000000 -5.360142 -7.179560 -32.250079 1.907144 8.669915 24.768096 -0.095784 -9.803325 -5.088231 0.000949 -0.171374 -0.470937 0.000000 0.000000 0.000000 32.043456 -7.755214 19.000231 0.000000 0.000000 0.000000 -0.160902 4.330175 -7.289396 -0.453203 4.298864 -11.922056 10.012637 2.829421 3.698315 3.730244 3.961368 1.687842 -1.844114 1.955483 0.105512 -9.337693 -2.735863 -15.927376 5.814168 -3.825277 31.104746 3.238918 -2.266824 13.429758 0.000000 0.000000 0.000000 -0.906157 8.737932 -14.061718 12.096215 -19.948668 2.135104 18.197495 9.874090 -20.536154 0.000000 0.000000 0.000000 -7.125000 0.000000 0.000000 -10.430999 51.206612 1.609647 0.000000 0.000000 0.000000 -3.698822 -2.970007 17.932693 -15.221687 -24.454008 -3.317163 -22.475539 -16.279895 -11.827346 0.000000 0.000000 0.000000 7.125000 0.000000 0.000000 3.281563 17.224056 2.166224
25.121628 17.434952 -21.767573 604.585205 -81.257171 839.305122 0.000000 0.000000 0.000000 -9.111031 -5.145898 -29.432872 1.987094 8.839177 25.293517 -0.265537 -11.140134 -2.795108 0.058232 -1.555109 -4.277659 0.000000 0.000000 0.000000 28.959635 -6.589971 16.120850 -0.452058 -4.289585 11.896418 -0.035213 4.344463 -4.243879 -0.077584 1.792221 -4.931958 7.939555 2.920286 3.245744 2.980168 4.006621 1.767704 -1.459921 2.001788 0.346712 -9.382392 -2.926693 -15.709069 6.229123 -4.254129 30.992060 3.340835 -2.408850 13.387114 0.000000 0.000000 0.000000 -0.536214 8.806458 -12.648875 11.534183 -19.102404 1.947132 19.181798 11.835993 -21.826479 0.000000 0.000000 0.000000 -7.125000 0.000000 0.000000 -9.932642 52.688522 1.894498 0.000000 0.000000 0.000000 -2.697246 -1.239657 15.013765 -14.131994 -22.923016 -2.879326 -22.785708 -14.783915 -11.835591 0.000000 0.000000 0.000000 7.125000 0.000000 0.000000 3.065425 17.185625 2.025809
24.108577 17.586356 -21.624327 588.563419 -83.239145 854.108898 0.000000 0.000000 0.000000 -14.161240 0.798256 -25.531303 1.778134 8.387653 23.897914 -0.609916 -14.963315 -0.969535 2.610311 -10.035803 -29.092829 0.000000 0.000000 0.000000 24.772607 -5.688306 8.443954 -2.847529 -10.437466 30.411558 -0.062021 1.386909 5.366787 -0.021928 0.955128 -2.625341 5.011842 2.993066 3.195543 2.314686 4.044761 2.025912 -0.524779 2.025358 0.477814 -9.174878 -2.738390 -15.747074 6.217280 -4.117031 31.658850 3.336853 -2.353213 13.660153 0.000000 0.000000 0.000000 -0.125759 9.530209 -14.765148 12.451503 -20.478244 2.257778 20.306904 11.416245 -23.475470 0.000000 0.000000 0.000000 -7.125000 0.000000 0.000000 -9.442952 54.580027 2.237173 0.000000 0.000000 0.000000 -2.549789 0.464124 13.426733 -13.016818 -21.311851 -2.459416 -21.515845 -12.835134 -11.524267 0.000000 0.000000 0.000000 7.125000 0.000000 0.000000 3.941256 17.635788 2.568063
23.202373 17.701636 -21.500984 568.854102 -84.294672 872.837080 0.000000 0.000000 0.000000 -17.316381 0.107795 -17.680992 1.156455 6.827200 19.204548 -0.445447 -13.403209 -2.011562 0.026617 -1.050336 -2.887416 0.000000 0.000000 0.000000 21.151621 -3.243271 -0.951487 -7.068653 -15.388513 49.131837 -0.846052 -8.776229 16.610675 -1.317924 -7.267765 20.512414 2.717502 2.457572 3.855605 1.868177 3.318417 2.053247 0.271390 1.647362 -0.006010 -9.076006 -2.061991 -16.133085 5.686065 -2.970337 32.116551 3.302867 -1.927528 13.814911 0.000000 0.000000 0.000000 0.484496 9.227964 -16.636608 13.552042 -22.090655 2.657308 18.164614 7.457245 -21.631138 0.000000 0.000000 0.000000 -7.125000 0.000000 0.000000 -10.870030 52.309901 1.974985 0.000000 0.000000 0.000000 -2.924999 1.283738 14.253534 -12.607693 -20.709659 -2.312654 -21.105872 -11.405768 -11.801246 0.000000 0.000000 0.000000 7.125000 0.000000 0.000000 4.236969 17.377592 2.785765
22.389626 17.750891 -21.405776 542.650569 -85.974095 898.148923 0.000000 0.000000 0.000000 -21.200234 3.131658 -12.023288 0.649357 5.154325 14.349243 -0.666303 -15.179759 0.104281 0.171481 2.641868 7.284899 0.000000 0.000000 0.000000 17.762692 -2.417144 -10.582188 -11.340290 -18.096927 63.880897 -0.270009 -10.220435 10.934384 -1.283894 -7.180265 20.250480 0.053574 1.641280 4.425057 1.512840 2.152233 2.235923 1.422521 1.049856 -0.240251 -8.563613 -1.529764 -16.311751 4.563900 -1.948360 32.205727 2.926760 -1.575029 13.778139 0.000000 0.000000 0.000000 1.023216 6.146322 -16.047689 13.197906 -21.576475 2.525656 17.598450 9.345683 -21.009011 0.000000 0.000000 0.000000 -7.125000 0.000000 0.000000 -11.191344 51.584098 1.834116 0.000000 0.000000 0.000000 -3.018932 1.193788 13.744215 -13.126209 -21.471891 -2.499326 -21.692971 -12.334650 -11.770843 0.000000 0.000000 0.000000 7.125000 0.000000 0.000000 3.825771 17.357074 2.515888
